<svg width="28" height="23" viewBox="0 0 28 23" fill="none" xmlns="http://www.w3.org/2000/svg">
<rect width="23" height="23" rx="11.5" fill="#F37021"/>
<path d="M10.7 14.8C10.7 14.24 10.7867 13.76 10.96 13.36C11.1467 12.96 11.3733 12.6067 11.64 12.3C11.92 11.9933 12.2133 11.7067 12.52 11.44C12.84 11.1733 13.14 10.9067 13.42 10.64C13.7 10.36 13.9267 10.06 14.1 9.74C14.2733 9.40667 14.36 9.02 14.36 8.58C14.36 7.86 14.08 7.27333 13.52 6.82C12.96 6.36667 12.1667 6.14 11.14 6.14C10.2867 6.14 9.54667 6.28 8.92 6.56C8.29333 6.82667 7.76 7.22667 7.32 7.76L6.26 6.96C6.79333 6.29333 7.48 5.78 8.32 5.42C9.16 5.06 10.1333 4.88 11.24 4.88C12.1733 4.88 12.98 5.02 13.66 5.3C14.3533 5.58 14.8867 5.98 15.26 6.5C15.6467 7.02 15.84 7.64 15.84 8.36C15.84 8.93333 15.7467 9.42667 15.56 9.84C15.3867 10.24 15.16 10.6 14.88 10.92C14.6133 11.2267 14.32 11.52 14 11.8C13.6933 12.0667 13.4 12.34 13.12 12.62C12.84 12.9 12.6133 13.2133 12.44 13.56C12.2667 13.9067 12.18 14.32 12.18 14.8H10.7ZM11.44 19.1C11.16 19.1 10.9133 19 10.7 18.8C10.5 18.5867 10.4 18.34 10.4 18.06C10.4 17.7667 10.5 17.5267 10.7 17.34C10.9133 17.14 11.16 17.04 11.44 17.04C11.7467 17.04 12 17.14 12.2 17.34C12.4 17.5267 12.5 17.7667 12.5 18.06C12.5 18.34 12.4 18.5867 12.2 18.8C12 19 11.7467 19.1 11.44 19.1Z" fill="white"/>
</svg>
